<?xml version="1.0" encoding="utf-8"?>
<!-- Generator: Adobe Illustrator 16.0.0, SVG Export Plug-In . SVG Version: 6.00 Build 0)  -->
<!DOCTYPE svg PUBLIC "-//W3C//DTD SVG 1.1//EN" "http://www.w3.org/Graphics/SVG/1.1/DTD/svg11.dtd">
<svg version="1.1" id="Layer_1" xmlns="http://www.w3.org/2000/svg" xmlns:xlink="http://www.w3.org/1999/xlink" x="0px" y="0px"
	 width="171.795px" height="40px" viewBox="0 0 171.795 40" enable-background="new 0 0 171.795 40" xml:space="preserve">
<path fill="#E95E30" d="M44.42,14.093c-1.574-2.524-3.728-3.901-7.05-4.592c-0.03-2.522-0.803-4.025-1.574-5.298
	c-2.637-4.355-8.432-5.298-12.242-2.958l-8.12,5.123l-9.718,6.084l-0.012-0.019c-4.177,2.613-6.953,7.765-3.725,13.168
	c2.43,4.012,8.21,6.293,12.96,3.274c1.38-0.862,3.185-1.024,4.401,0.979c1.046,1.649,0.252,3.482-1.474,4.379L21.403,40
	c4.512-2.732,6.89-8.465,3.773-13.613c-3.08-5.082-9.364-5.574-13.158-3.152c-1.38,0.865-3.551,0.427-4.422-1.01
	c-1.12-1.929-0.198-3.476,1.314-4.42L8.902,17.79l9.64-6.037l7.77-4.752c3.756-2.353,7.117,2.75,3.18,5.17l-1.958,1.27l3.207,5.293
	l3.478-2.133c3.458-2.165,6.76,2.834,3.058,5.199l-9.125,5.714l3.367,5.559l10.153-6.264C44.406,25.096,47.515,19.131,44.42,14.093"
	/>
<path fill="#FFFFFF" d="M56.333,26.281c-0.827,0-1.558-0.116-2.192-0.35c-0.634-0.234-1.24-0.611-1.818-1.137
	c-0.237-0.205-0.356-0.438-0.356-0.699c0-0.205,0.079-0.391,0.237-0.556c0.144-0.158,0.347-0.248,0.561-0.247
	c0.193,0,0.357,0.063,0.493,0.188c0.453,0.42,0.92,0.73,1.401,0.931c0.482,0.198,1.028,0.299,1.64,0.299
	c0.713,0,1.316-0.165,1.809-0.495c0.493-0.328,0.739-0.744,0.739-1.244c-0.011-0.594-0.258-1.052-0.739-1.375
	c-0.481-0.324-1.215-0.596-2.2-0.812c-1.167-0.24-2.064-0.632-2.693-1.179c-0.628-0.546-0.943-1.303-0.943-2.27
	c0-0.672,0.176-1.26,0.527-1.767c0.351-0.507,0.838-0.897,1.461-1.17c0.623-0.273,1.325-0.41,2.107-0.41
	c0.702,0,1.364,0.114,1.987,0.342c0.623,0.227,1.127,0.53,1.512,0.905c0.26,0.227,0.391,0.472,0.391,0.734
	c0,0.205-0.083,0.402-0.23,0.546c-0.141,0.154-0.342,0.242-0.551,0.24c-0.143,0.006-0.283-0.043-0.391-0.137
	c-0.295-0.296-0.702-0.547-1.223-0.752c-0.475-0.196-0.982-0.3-1.495-0.307c-0.76,0-1.362,0.157-1.81,0.47
	c-0.447,0.313-0.67,0.725-0.67,1.237c0,0.558,0.223,0.985,0.67,1.28c0.448,0.297,1.113,0.547,1.997,0.752
	c0.883,0.193,1.605,0.421,2.166,0.683c0.56,0.262,0.993,0.625,1.3,1.091c0.305,0.468,0.458,1.076,0.458,1.826
	c0,0.66-0.184,1.248-0.552,1.761c-0.368,0.512-0.87,0.909-1.504,1.194C57.764,26.145,57.051,26.29,56.333,26.281L56.333,26.281z
	 M70.841,21.639c0,0.887-0.198,1.684-0.595,2.389c-0.38,0.689-0.941,1.263-1.622,1.656c-0.688,0.4-1.472,0.606-2.268,0.598
	c-0.796,0.01-1.58-0.196-2.268-0.598c-0.681-0.395-1.242-0.967-1.622-1.656c-0.397-0.705-0.595-1.502-0.595-2.389
	c0-0.889,0.198-1.691,0.595-2.408c0.376-0.696,0.938-1.275,1.622-1.673c0.688-0.399,1.472-0.606,2.268-0.598
	c0.827,0,1.583,0.2,2.268,0.598c0.684,0.397,1.246,0.977,1.622,1.673C70.643,19.948,70.841,20.751,70.841,21.639z M69.227,21.639
	c0-0.615-0.127-1.165-0.382-1.649c-0.255-0.483-0.6-0.859-1.037-1.126c-0.437-0.268-0.94-0.407-1.452-0.402
	c-0.532,0-1.017,0.134-1.453,0.402c-0.441,0.274-0.8,0.663-1.036,1.126c-0.255,0.484-0.382,1.034-0.382,1.649
	c0,0.604,0.127,1.143,0.382,1.621c0.255,0.479,0.6,0.85,1.036,1.118c0.436,0.267,0.92,0.401,1.453,0.401
	c0.532,0,1.016-0.135,1.452-0.401c0.437-0.267,0.782-0.64,1.037-1.118C69.1,22.781,69.227,22.241,69.227,21.639z M76.583,16.96
	c0.895,0,1.64,0.142,2.234,0.427c0.595,0.284,0.892,0.649,0.892,1.092c0.001,0.19-0.064,0.375-0.188,0.521
	c-0.113,0.148-0.29,0.233-0.476,0.23c-0.12,0.006-0.239-0.018-0.348-0.068c-0.12-0.068-0.236-0.142-0.348-0.222
	c-0.099-0.091-0.207-0.171-0.323-0.239c-0.184-0.083-0.378-0.14-0.577-0.17c-0.224-0.043-0.452-0.066-0.68-0.069
	c-0.589,0-1.11,0.137-1.563,0.41c-0.451,0.271-0.816,0.665-1.053,1.135c-0.253,0.5-0.381,1.054-0.374,1.614
	c0,0.604,0.122,1.145,0.365,1.622c0.244,0.478,0.586,0.853,1.028,1.126s0.946,0.41,1.512,0.41c0.589,0,1.065-0.09,1.427-0.273
	l0.14-0.09c0.062-0.043,0.123-0.087,0.183-0.132c0.113-0.091,0.212-0.16,0.297-0.205c0.098-0.048,0.205-0.071,0.314-0.067
	c0.227,0,0.405,0.07,0.536,0.213c0.134,0.152,0.203,0.353,0.195,0.555c0,0.24-0.15,0.476-0.45,0.709
	c-0.3,0.232-0.702,0.425-1.206,0.572c-0.528,0.15-1.074,0.227-1.623,0.221c-0.86,0-1.62-0.2-2.276-0.604
	c-0.655-0.402-1.183-0.982-1.52-1.675c-0.358-0.71-0.536-1.505-0.536-2.381c0-0.877,0.187-1.67,0.56-2.382
	c0.356-0.692,0.897-1.271,1.564-1.673C74.958,17.162,75.722,16.96,76.583,16.96z M82.971,25.291c0.004,0.217-0.078,0.426-0.23,0.58
	c-0.152,0.16-0.365,0.246-0.586,0.24c-0.215,0.004-0.422-0.084-0.568-0.24c-0.151-0.154-0.234-0.363-0.23-0.58V17.9
	c0-0.228,0.078-0.421,0.23-0.58c0.146-0.157,0.354-0.245,0.57-0.24c0.236,0,0.433,0.08,0.586,0.24
	c0.152,0.159,0.229,0.352,0.229,0.58L82.971,25.291L82.971,25.291z M82.154,15.953c-0.327,0-0.563-0.06-0.705-0.18
	c-0.141-0.119-0.211-0.31-0.211-0.571v-0.274c0-0.273,0.076-0.466,0.229-0.58c0.152-0.114,0.388-0.17,0.704-0.17
	c0.318,0,0.547,0.059,0.688,0.178c0.143,0.12,0.213,0.31,0.213,0.572v0.274c0,0.273-0.073,0.466-0.221,0.58
	C82.705,15.896,82.473,15.952,82.154,15.953L82.154,15.953z M92.519,17.045c0.237,0,0.435,0.077,0.588,0.23
	c0.15,0.155,0.229,0.357,0.229,0.607v7.41c0.004,0.216-0.078,0.425-0.23,0.58c-0.151,0.159-0.365,0.246-0.586,0.239
	c-0.215,0.008-0.426-0.075-0.576-0.23c-0.149-0.158-0.229-0.371-0.221-0.59v-0.443c-0.295,0.398-0.697,0.736-1.207,1.016
	c-0.504,0.277-1.072,0.423-1.647,0.418c-0.771,0-1.47-0.198-2.099-0.598c-0.628-0.396-1.121-0.953-1.478-1.664
	s-0.535-1.511-0.535-2.398c0-0.889,0.179-1.687,0.535-2.398s0.846-1.266,1.47-1.664c0.612-0.396,1.326-0.604,2.055-0.598
	c0.602,0,1.158,0.125,1.675,0.376c0.516,0.25,0.926,0.569,1.231,0.956v-0.41c0-0.24,0.073-0.438,0.219-0.598
	C92.088,17.124,92.3,17.037,92.519,17.045z M89.054,24.779c0.531,0,1.006-0.137,1.418-0.41c0.413-0.273,0.736-0.648,0.969-1.126
	c0.231-0.478,0.349-1.019,0.349-1.622c0-0.592-0.116-1.127-0.349-1.605c-0.215-0.458-0.551-0.851-0.969-1.135
	c-0.42-0.281-0.914-0.427-1.418-0.419c-0.533,0-1.006,0.137-1.42,0.41c-0.419,0.28-0.754,0.67-0.968,1.127
	c-0.231,0.478-0.348,1.019-0.348,1.622s0.115,1.145,0.348,1.622s0.556,0.853,0.968,1.126C88.048,24.643,88.521,24.779,89.054,24.779
	z M97.479,25.291c0,0.229-0.08,0.422-0.238,0.58c-0.15,0.156-0.359,0.242-0.576,0.24c-0.216,0.004-0.423-0.084-0.57-0.24
	c-0.15-0.154-0.232-0.363-0.229-0.58V14.297c0-0.228,0.08-0.421,0.238-0.58c0.149-0.157,0.358-0.244,0.578-0.24
	c0.225,0,0.416,0.08,0.567,0.24c0.151,0.159,0.229,0.352,0.229,0.58V25.291L97.479,25.291z"/>
<path fill="#E95E30" d="M111.749,19.589c0.604,0.203,1.137,0.573,1.538,1.067s0.604,1.141,0.604,1.938
	c0,1.264-0.365,2.165-1.098,2.706c-0.729,0.54-1.622,0.81-2.675,0.81h-4.366c-0.218,0.006-0.427-0.082-0.578-0.236
	c-0.154-0.152-0.24-0.361-0.236-0.58V14.98c0-0.228,0.08-0.422,0.236-0.58c0.151-0.157,0.36-0.244,0.578-0.24h4.366
	c1.028,0,1.813,0.256,2.353,0.768c0.538,0.513,0.809,1.252,0.809,2.22c0,0.546-0.131,1.033-0.393,1.46
	C112.628,19.034,112.248,19.362,111.749,19.589L111.749,19.589z M111.528,17.404c0-0.535-0.146-0.942-0.434-1.22
	c-0.289-0.28-0.693-0.42-1.215-0.42h-3.211v3.33h3.245c0.464-0.011,0.851-0.162,1.155-0.452
	C111.376,18.352,111.528,17.939,111.528,17.404z M110.103,24.54c0.623,0,1.121-0.162,1.496-0.485
	c0.371-0.326,0.559-0.812,0.559-1.461c0-1.263-0.713-1.895-2.139-1.895h-3.349v3.841H110.103z M120.261,16.96
	c0.295,0,0.551,0.077,0.766,0.23c0.215,0.154,0.322,0.345,0.322,0.572c0,0.274-0.07,0.481-0.213,0.624
	c-0.136,0.14-0.322,0.217-0.519,0.213c-0.081,0-0.195-0.022-0.343-0.066l-0.116-0.036c-0.237-0.08-0.425-0.12-0.56-0.12
	c-0.353,0-0.695,0.122-1.029,0.367c-0.334,0.245-0.604,0.58-0.814,1.007s-0.313,0.901-0.313,1.427v4.113
	c0.004,0.217-0.08,0.426-0.23,0.58c-0.152,0.16-0.365,0.246-0.586,0.24c-0.217,0.008-0.426-0.075-0.577-0.23
	c-0.149-0.158-0.229-0.371-0.221-0.59v-7.307c0-0.227,0.075-0.42,0.229-0.58c0.146-0.157,0.354-0.244,0.567-0.24
	c0.237,0,0.435,0.08,0.586,0.24c0.151,0.16,0.229,0.353,0.229,0.58v0.871c0.248-0.558,0.623-1.01,1.121-1.357
	C119.062,17.15,119.653,16.963,120.261,16.96L120.261,16.96z M131.271,21.639c0,0.887-0.199,1.684-0.596,2.389
	c-0.38,0.689-0.939,1.263-1.621,1.656c-0.688,0.4-1.473,0.606-2.269,0.598c-0.798,0.01-1.58-0.196-2.269-0.598
	c-0.682-0.395-1.242-0.967-1.623-1.656c-0.396-0.705-0.595-1.502-0.595-2.389c0-0.889,0.198-1.691,0.595-2.408
	c0.377-0.696,0.938-1.275,1.623-1.673c0.688-0.399,1.471-0.606,2.269-0.598c0.825,0,1.582,0.2,2.269,0.598
	c0.684,0.397,1.245,0.977,1.621,1.673C131.069,19.948,131.271,20.751,131.271,21.639z M129.655,21.639
	c0-0.615-0.129-1.165-0.383-1.649c-0.254-0.483-0.601-0.859-1.037-1.126c-0.436-0.268-0.938-0.407-1.45-0.402
	c-0.533,0-1.019,0.134-1.453,0.402c-0.44,0.274-0.802,0.663-1.036,1.126c-0.255,0.484-0.383,1.034-0.383,1.649
	c0,0.604,0.128,1.143,0.383,1.621s0.602,0.85,1.036,1.118c0.437,0.267,0.92,0.401,1.453,0.401c0.53,0,1.016-0.135,1.45-0.401
	c0.438-0.267,0.783-0.64,1.037-1.118S129.655,22.24,129.655,21.639z M135.551,18.753v5.087c0,0.57,0.257,0.854,0.765,0.854
	c0.061,0,0.135-0.01,0.227-0.032l0.098-0.026c0.135-0.039,0.242-0.06,0.322-0.06c0.146,0,0.271,0.063,0.374,0.188
	c0.104,0.137,0.159,0.307,0.151,0.479c0,0.24-0.135,0.443-0.406,0.615c-0.271,0.17-0.578,0.256-0.918,0.256
	c-0.373,0-0.717-0.041-1.027-0.12c-0.313-0.08-0.589-0.281-0.832-0.606c-0.244-0.324-0.365-0.816-0.365-1.476v-5.156h-0.985
	c-0.404,0.01-0.738-0.31-0.748-0.713c0-0.013,0-0.025,0-0.038c0.001-0.217,0.071-0.393,0.213-0.53
	c0.144-0.138,0.336-0.211,0.535-0.205h0.985v-1.434c0-0.227,0.076-0.42,0.229-0.58c0.151-0.159,0.364-0.247,0.585-0.24
	c0.227,0,0.416,0.08,0.57,0.24c0.152,0.16,0.229,0.353,0.229,0.58v1.434h1.41c0.404-0.01,0.738,0.31,0.748,0.713
	c0,0.013,0,0.025,0,0.038c0,0.217-0.072,0.393-0.213,0.53c-0.145,0.138-0.336,0.211-0.535,0.205h-1.411V18.753z M144.026,17.011
	c1.994,0,2.99,1.24,2.99,3.721v4.559c0.004,0.217-0.078,0.426-0.229,0.58c-0.152,0.158-0.364,0.246-0.585,0.24
	c-0.216,0.004-0.423-0.084-0.57-0.24c-0.149-0.154-0.233-0.363-0.229-0.58v-4.559c0-1.479-0.623-2.219-1.868-2.219
	c-0.668,0-1.224,0.214-1.665,0.64c-0.436,0.41-0.676,0.983-0.662,1.58v4.56c0.004,0.217-0.079,0.427-0.229,0.58
	c-0.152,0.159-0.367,0.246-0.586,0.239c-0.218,0.009-0.428-0.075-0.578-0.229c-0.148-0.159-0.229-0.37-0.222-0.59V14.297
	c0-0.228,0.076-0.421,0.229-0.58c0.146-0.157,0.355-0.244,0.568-0.24c0.237,0,0.435,0.08,0.586,0.24
	c0.152,0.159,0.229,0.352,0.229,0.58v4.32c0.282-0.445,0.681-0.823,1.19-1.136C142.888,17.174,143.451,17.011,144.026,17.011
	L144.026,17.011z M157.245,21.296c-0.01,0.202-0.104,0.39-0.256,0.521c-0.151,0.142-0.354,0.218-0.561,0.215h-5.979
	c0.079,0.83,0.394,1.496,0.942,1.996s1.221,0.752,2.014,0.752c0.543,0,0.984-0.079,1.324-0.238c0.34-0.16,0.642-0.363,0.9-0.613
	c0.146-0.097,0.318-0.148,0.493-0.154c0.192,0,0.354,0.067,0.483,0.205c0.127,0.127,0.197,0.299,0.195,0.479
	c-0.004,0.214-0.095,0.417-0.25,0.564l-0.09,0.084c-0.329,0.33-0.766,0.608-1.309,0.836c-0.526,0.225-1.094,0.342-1.666,0.342
	c-0.918,0-1.725-0.193-2.42-0.579c-0.684-0.374-1.244-0.938-1.613-1.623c-0.381-0.694-0.57-1.479-0.57-2.356
	c0-0.955,0.196-1.793,0.588-2.518c0.391-0.724,0.905-1.278,1.547-1.665c0.619-0.381,1.334-0.583,2.063-0.58
	c0.727,0,1.402,0.188,2.039,0.563c0.636,0.377,1.162,0.913,1.527,1.554C157.036,19.737,157.233,20.477,157.245,21.296
	L157.245,21.296z M153.083,18.462c-0.634,0-1.186,0.18-1.646,0.538c-0.465,0.359-0.771,0.914-0.918,1.665h5.012v-0.138
	c-0.049-0.586-0.342-1.125-0.807-1.484C154.261,18.664,153.681,18.458,153.083,18.462L153.083,18.462z M163.548,16.96
	c0.294,0,0.551,0.077,0.766,0.23c0.215,0.154,0.322,0.345,0.322,0.572c0,0.274-0.07,0.481-0.213,0.624
	c-0.136,0.14-0.322,0.217-0.52,0.213c-0.082,0-0.194-0.022-0.342-0.066l-0.117-0.036c-0.236-0.08-0.424-0.12-0.559-0.12
	c-0.354,0-0.695,0.122-1.029,0.367c-0.334,0.245-0.604,0.58-0.814,1.007s-0.313,0.901-0.313,1.427v4.113
	c0.004,0.217-0.08,0.426-0.23,0.58c-0.152,0.16-0.365,0.246-0.586,0.24c-0.217,0.008-0.426-0.076-0.577-0.23
	c-0.149-0.158-0.229-0.371-0.222-0.59v-7.307c0-0.227,0.076-0.42,0.23-0.58c0.146-0.157,0.354-0.244,0.567-0.24
	c0.237,0,0.435,0.08,0.587,0.24c0.15,0.16,0.229,0.353,0.229,0.58v0.871c0.25-0.558,0.623-1.01,1.121-1.357
	C162.349,17.15,162.938,16.963,163.548,16.96L163.548,16.96z M165.621,24.71c-0.095-0.136-0.147-0.295-0.153-0.46
	c0-0.229,0.119-0.421,0.356-0.58c0.114-0.08,0.251-0.122,0.391-0.12c0.204,0,0.392,0.085,0.562,0.257
	c0.34,0.387,0.705,0.676,1.097,0.869c0.39,0.194,0.858,0.291,1.401,0.291c0.43-0.011,0.81-0.109,1.138-0.299
	c0.329-0.188,0.493-0.492,0.493-0.913c0.012-0.366-0.182-0.708-0.502-0.888c-0.291-0.18-0.703-0.346-1.234-0.498l-0.234-0.064
	c-0.541-0.139-1.067-0.318-1.58-0.539c-0.414-0.184-0.778-0.465-1.062-0.82c-0.29-0.356-0.435-0.826-0.435-1.406
	c0-0.512,0.146-0.962,0.435-1.349c0.3-0.396,0.698-0.708,1.155-0.905c0.494-0.219,1.029-0.33,1.57-0.324
	c0.545,0,1.086,0.102,1.623,0.307s0.977,0.518,1.315,0.94c0.136,0.159,0.204,0.324,0.204,0.494c0,0.183-0.092,0.359-0.271,0.53
	c-0.117,0.104-0.269,0.158-0.425,0.153c-0.187,0.008-0.366-0.067-0.493-0.205c-0.238-0.274-0.539-0.49-0.875-0.631
	c-0.361-0.151-0.752-0.227-1.146-0.222c-0.43,0-0.795,0.088-1.094,0.264c-0.301,0.177-0.451,0.476-0.451,0.897
	c0.011,0.398,0.184,0.694,0.519,0.888c0.292,0.169,0.72,0.334,1.286,0.494l0.251,0.067c0.601,0.16,1.099,0.33,1.495,0.514
	c0.396,0.182,0.73,0.451,1.002,0.813c0.271,0.357,0.408,0.826,0.408,1.407c0,0.534-0.153,0.998-0.459,1.392
	c-0.314,0.398-0.727,0.711-1.197,0.904c-0.497,0.213-1.031,0.319-1.572,0.314c-0.678,0.009-1.351-0.12-1.979-0.375
	C166.548,25.652,166.019,25.24,165.621,24.71L165.621,24.71z"/>
</svg>
